ISO-10303-21;
HEADER;
FILE_DESCRIPTION (( 'STEP AP203' ),
    '1' );
FILE_NAME ('platefomeMobile_Défaut_sldprt.STEP',
    '2026-05-23T16:18:52',
    ( '' ),
    ( '' ),
    'SwSTEP 2.0',
    'SolidWorks 2023',
    '' );
FILE_SCHEMA (( 'CONFIG_CONTROL_DESIGN' ));
ENDSEC;

DATA;
#1 = ORIENTED_EDGE ( 'NONE', *, *, #107, .T. ) ;
#2 = LINE ( 'NONE', #146, #53 ) ;
#3 = ORIENTED_EDGE ( 'NONE', *, *, #156, .T. ) ;
#4 = CARTESIAN_POINT ( 'NONE',  ( 0.000000000000000000, 0.000000000000000000, 0.000000000000000000 ) ) ;
#5 = EDGE_CURVE ( 'NONE', #124, #86, #166, .T. ) ;
#6 = PLANE ( 'NONE',  #302 ) ;
#7 = EDGE_CURVE ( 'NONE', #86, #177, #273, .T. ) ;
#8 = VECTOR ( 'NONE', #366, 1000.000000000000000 ) ;
#9 =( NAMED_UNIT ( * ) PLANE_ANGLE_UNIT ( ) SI_UNIT ( $, .RADIAN. ) );
#10 = CALENDAR_DATE ( 2026, 23, 5 ) ;
#11 = DIRECTION ( 'NONE',  ( -0.000000000000000000, 1.000000000000000000, -0.000000000000000000 ) ) ;
#12 = FACE_OUTER_BOUND ( 'NONE', #145, .T. ) ;
#13 = EDGE_CURVE ( 'NONE', #341, #377, #100, .T. ) ;
#14 = PLANE ( 'NONE',  #235 ) ;
#15 = ADVANCED_FACE ( 'NONE', ( #190 ), #329, .T. ) ;
#16 = CC_DESIGN_APPROVAL ( #343, ( #355 ) ) ;
#17 = LINE ( 'NONE', #68, #214 ) ;
#18 = PERSON_AND_ORGANIZATION ( #211, #42 ) ;
#19 = CARTESIAN_POINT ( 'NONE',  ( -599.9999999999998863, -40.00000000000000000, -499.9999999999999432 ) ) ;
#20 = ORIENTED_EDGE ( 'NONE', *, *, #257, .T. ) ;
#21 = DIRECTION ( 'NONE',  ( 0.000000000000000000, -1.000000000000000000, 0.000000000000000000 ) ) ;
#22 = APPROVAL_DATE_TIME ( #167, #269 ) ;
#23 = ORIENTED_EDGE ( 'NONE', *, *, #324, .T. ) ;
#24 = SECURITY_CLASSIFICATION ( '', '', #340 ) ;
#25 = CARTESIAN_POINT ( 'NONE',  ( 600.0000000000001137, -40.00000000000000000, 500.0000000000002274 ) ) ;
#26 = CC_DESIGN_DATE_AND_TIME_ASSIGNMENT ( #29, #76, ( #24 ) ) ;
#27 = ORIENTED_EDGE ( 'NONE', *, *, #179, .F. ) ;
#28 = CARTESIAN_POINT ( 'NONE',  ( 125.0000000000000000, -40.00000000000000000, -125.0000000000000000 ) ) ;
#29 = DATE_AND_TIME ( #313, #141 ) ;
#30 = ORIENTED_EDGE ( 'NONE', *, *, #227, .T. ) ;
#31 = DIRECTION ( 'NONE',  ( 0.000000000000000000, 0.000000000000000000, -1.000000000000000000 ) ) ;
#32 = ADVANCED_FACE ( 'NONE', ( #277 ), #217, .F. ) ;
#33 = ORIENTED_EDGE ( 'NONE', *, *, #63, .F. ) ;
#34 = LINE ( 'NONE', #262, #322 ) ;
#35 = ORIENTED_EDGE ( 'NONE', *, *, #245, .T. ) ;
#36 = CARTESIAN_POINT ( 'NONE',  ( -599.9999999999998863, -40.00000000000000000, 500.0000000000002274 ) ) ;
#37 = VECTOR ( 'NONE', #342, 1000.000000000000000 ) ;
#38 = APPROVAL_ROLE ( '' ) ;
#39 = CALENDAR_DATE ( 2026, 23, 5 ) ;
#40 = CC_DESIGN_PERSON_AND_ORGANIZATION_ASSIGNMENT ( #80, #347, ( #24 ) ) ;
#41 = PLANE ( 'NONE',  #67 ) ;
#42 = ORGANIZATION ( 'UNSPECIFIED', 'UNSPECIFIED', '' ) ;
#43 = FACE_OUTER_BOUND ( 'NONE', #110, .T. ) ;
#44 = ADVANCED_FACE ( 'NONE', ( #43 ), #162, .F. ) ;
#45 = CARTESIAN_POINT ( 'NONE',  ( -125.0000000000000000, -140.0000000000000000, 124.9999999999999858 ) ) ;
#46 = CC_DESIGN_PERSON_AND_ORGANIZATION_ASSIGNMENT ( #288, #222, ( #355 ) ) ;
#47 = CARTESIAN_POINT ( 'NONE',  ( -599.9999999999998863, -40.00000000000000000, 500.0000000000002274 ) ) ;
#48 = AXIS2_PLACEMENT_3D ( 'NONE', #275, #307, #138 ) ;
#49 = CARTESIAN_POINT ( 'NONE',  ( 125.0000000000000000, -140.0000000000000000, -125.0000000000000000 ) ) ;
#50 = CARTESIAN_POINT ( 'NONE',  ( 0.000000000000000000, -40.00000000000000000, 0.000000000000000000 ) ) ;
#51 = EDGE_LOOP ( 'NONE', ( #55, #220, #206, #175 ) ) ;
#52 = PLANE ( 'NONE',  #346 ) ;
#53 = VECTOR ( 'NONE', #122, 1000.000000000000000 ) ;
#54 = PLANE ( 'NONE',  #108 ) ;
#55 = ORIENTED_EDGE ( 'NONE', *, *, #163, .T. ) ;
#56 = DIRECTION ( 'NONE',  ( -1.000000000000000000, -0.000000000000000000, -0.000000000000000000 ) ) ;
#57 = VERTEX_POINT ( 'NONE', #19 ) ;
#58 = CARTESIAN_POINT ( 'NONE',  ( -125.0000000000000000, -40.00000000000000000, 124.9999999999999858 ) ) ;
#59 = UNCERTAINTY_MEASURE_WITH_UNIT (LENGTH_MEASURE( 1.000000000000000082E-05 ), #326, 'distance_accuracy_value', 'NONE');
#60 = ORIENTED_EDGE ( 'NONE', *, *, #79, .T. ) ;
#61 = DIRECTION ( 'NONE',  ( 1.000000000000000000, 0.000000000000000000, 0.000000000000000000 ) ) ;
#62 = AXIS2_PLACEMENT_3D ( 'NONE', #49, #66, #363 ) ;
#63 = EDGE_CURVE ( 'NONE', #180, #362, #135, .T. ) ;
#64 = CARTESIAN_POINT ( 'NONE',  ( 125.0000000000000000, -40.00000000000000000, 124.9999999999999858 ) ) ;
#65 = CC_DESIGN_PERSON_AND_ORGANIZATION_ASSIGNMENT ( #130, #238, ( #186 ) ) ;
#66 = DIRECTION ( 'NONE',  ( -1.000000000000000000, 0.000000000000000000, 0.000000000000000000 ) ) ;
#67 = AXIS2_PLACEMENT_3D ( 'NONE', #133, #241, #272 ) ;
#68 = CARTESIAN_POINT ( 'NONE',  ( 125.0000000000000000, -140.0000000000000000, -125.0000000000000000 ) ) ;
#69 = FACE_OUTER_BOUND ( 'NONE', #253, .T. ) ;
#70 = DIRECTION ( 'NONE',  ( 0.000000000000000000, 0.000000000000000000, 1.000000000000000000 ) ) ;
#71 = CC_DESIGN_SECURITY_CLASSIFICATION ( #24, ( #355 ) ) ;
#72 = CC_DESIGN_APPROVAL ( #269, ( #24 ) ) ;
#73 = FACE_OUTER_BOUND ( 'NONE', #116, .T. ) ;
#74 = ORIENTED_EDGE ( 'NONE', *, *, #325, .T. ) ;
#75 = CARTESIAN_POINT ( 'NONE',  ( 125.0000000000000000, -140.0000000000000000, -125.0000000000000000 ) ) ;
#76 = DATE_TIME_ROLE ( 'classification_date' ) ;
#77 = ORIENTED_EDGE ( 'NONE', *, *, #201, .T. ) ;
#78 = DIRECTION ( 'NONE',  ( 0.000000000000000000, -0.000000000000000000, -1.000000000000000000 ) ) ;
#79 = EDGE_CURVE ( 'NONE', #149, #317, #364, .T. ) ;
#80 = PERSON_AND_ORGANIZATION ( #211, #42 ) ;
#81 = ORIENTED_EDGE ( 'NONE', *, *, #96, .T. ) ;
#82 = VECTOR ( 'NONE', #87, 1000.000000000000000 ) ;
#83 = EDGE_CURVE ( 'NONE', #57, #147, #164, .T. ) ;
#84 = DIRECTION ( 'NONE',  ( 0.000000000000000000, -0.000000000000000000, -1.000000000000000000 ) ) ;
#85 = APPLICATION_CONTEXT ( 'configuration controlled 3d designs of mechanical parts and assemblies' ) ;
#86 = VERTEX_POINT ( 'NONE', #333 ) ;
#87 = DIRECTION ( 'NONE',  ( -1.000000000000000000, -0.000000000000000000, -0.000000000000000000 ) ) ;
#88 = ORIENTED_EDGE ( 'NONE', *, *, #300, .T. ) ;
#89 = CARTESIAN_POINT ( 'NONE',  ( 600.0000000000001137, 0.000000000000000000, 500.0000000000002274 ) ) ;
#90 = ORIENTED_EDGE ( 'NONE', *, *, #324, .F. ) ;
#91 = APPROVAL_DATE_TIME ( #354, #343 ) ;
#92 = LOCAL_TIME ( 18, 18, 52.00000000000000000, #309 ) ;
#93 = ADVANCED_FACE ( 'NONE', ( #248 ), #14, .T. ) ;
#94 = DIRECTION ( 'NONE',  ( -0.000000000000000000, 0.000000000000000000, -1.000000000000000000 ) ) ;
#95 = PERSON_AND_ORGANIZATION ( #211, #42 ) ;
#96 = EDGE_CURVE ( 'NONE', #291, #341, #17, .T. ) ;
#97 = ADVANCED_FACE ( 'NONE', ( #69 ), #213, .F. ) ;
#98 = APPLICATION_PROTOCOL_DEFINITION ( 'international standard', 'config_control_design', 1994, #85 ) ;
#99 = AXIS2_PLACEMENT_3D ( 'NONE', #4, #237, #358 ) ;
#100 = LINE ( 'NONE', #101, #371 ) ;
#101 = CARTESIAN_POINT ( 'NONE',  ( 125.0000000000000000, -140.0000000000000000, 124.9999999999999858 ) ) ;
#102 = LOCAL_TIME ( 18, 18, 52.00000000000000000, #158 ) ;
#103 = DIRECTION ( 'NONE',  ( 1.000000000000000000, 0.000000000000000000, 0.000000000000000000 ) ) ;
#104 = MANIFOLD_SOLID_BREP ( 'Boss.-Extru.2', #127 ) ;
#105 = DIRECTION ( 'NONE',  ( -0.000000000000000000, 1.000000000000000000, -0.000000000000000000 ) ) ;
#106 = DIRECTION ( 'NONE',  ( -0.000000000000000000, -0.000000000000000000, 1.000000000000000000 ) ) ;
#107 = EDGE_CURVE ( 'NONE', #124, #152, #188, .T. ) ;
#108 = AXIS2_PLACEMENT_3D ( 'NONE', #50, #21, #78 ) ;
#109 = SHAPE_DEFINITION_REPRESENTATION ( #212, #278 ) ;
#110 = EDGE_LOOP ( 'NONE', ( #81, #88, #168, #250 ) ) ;
#111 = PLANE ( 'NONE',  #187 ) ;
#112 = ORIENTED_EDGE ( 'NONE', *, *, #243, .F. ) ;
#113 = CARTESIAN_POINT ( 'NONE',  ( -599.9999999999998863, -40.00000000000000000, 500.0000000000002274 ) ) ;
#114 = EDGE_CURVE ( 'NONE', #147, #86, #303, .T. ) ;
#115 = CC_DESIGN_DATE_AND_TIME_ASSIGNMENT ( #131, #159, ( #186 ) ) ;
#116 = EDGE_LOOP ( 'NONE', ( #90, #375, #3, #344 ) ) ;
#117 = CARTESIAN_POINT ( 'NONE',  ( -125.0000000000000000, -40.00000000000000000, 124.9999999999999858 ) ) ;
#118 = EDGE_LOOP ( 'NONE', ( #112, #295, #35, #173 ) ) ;
#119 = VECTOR ( 'NONE', #349, 1000.000000000000000 ) ;
#120 = LINE ( 'NONE', #178, #197 ) ;
#121 = VERTEX_POINT ( 'NONE', #219 ) ;
#122 = DIRECTION ( 'NONE',  ( -0.000000000000000000, -0.000000000000000000, -1.000000000000000000 ) ) ;
#123 = APPLICATION_CONTEXT ( 'configuration controlled 3d designs of mechanical parts and assemblies' ) ;
#124 = VERTEX_POINT ( 'NONE', #337 ) ;
#125 = COORDINATED_UNIVERSAL_TIME_OFFSET ( 1, 0, .AHEAD. ) ;
#126 = LINE ( 'NONE', #181, #205 ) ;
#127 = CLOSED_SHELL ( 'NONE', ( #15, #93, #365, #129, #216, #286, #32, #137, #335, #97, #44 ) ) ;
#128 = FACE_OUTER_BOUND ( 'NONE', #255, .T. ) ;
#129 = ADVANCED_FACE ( 'NONE', ( #73 ), #41, .T. ) ;
#130 = PERSON_AND_ORGANIZATION ( #211, #42 ) ;
#131 = DATE_AND_TIME ( #39, #316 ) ;
#132 = VECTOR ( 'NONE', #103, 1000.000000000000000 ) ;
#133 = CARTESIAN_POINT ( 'NONE',  ( -599.9999999999998863, -40.00000000000000000, -499.9999999999999432 ) ) ;
#134 = DIRECTION ( 'NONE',  ( 1.000000000000000000, 0.000000000000000000, 0.000000000000000000 ) ) ;
#135 = LINE ( 'NONE', #244, #260 ) ;
#136 = ORIENTED_EDGE ( 'NONE', *, *, #156, .F. ) ;
#137 = ADVANCED_FACE ( 'NONE', ( #12 ), #52, .F. ) ;
#138 = DIRECTION ( 'NONE',  ( 0.000000000000000000, 0.000000000000000000, -1.000000000000000000 ) ) ;
#139 = ORIENTED_EDGE ( 'NONE', *, *, #325, .F. ) ;
#140 = LINE ( 'NONE', #221, #37 ) ;
#141 = LOCAL_TIME ( 18, 18, 52.00000000000000000, #281 ) ;
#142 = ORIENTED_EDGE ( 'NONE', *, *, #163, .F. ) ;
#143 = DIRECTION ( 'NONE',  ( -1.000000000000000000, 0.000000000000000000, -0.000000000000000000 ) ) ;
#144 = PRODUCT ( 'platefomeMobile_D\X2\00e9\X0\faut_sldprt', 'platefomeMobile_D\X2\00e9\X0\faut_sldprt', '', ( #153 ) ) ;
#145 = EDGE_LOOP ( 'NONE', ( #20, #279, #229, #373 ) ) ;
#146 = CARTESIAN_POINT ( 'NONE',  ( -125.0000000000000000, -40.00000000000000000, -125.0000000000000000 ) ) ;
#147 = VERTEX_POINT ( 'NONE', #196 ) ;
#148 = CARTESIAN_POINT ( 'NONE',  ( -125.0000000000000000, -140.0000000000000000, 124.9999999999999858 ) ) ;
#149 = VERTEX_POINT ( 'NONE', #169 ) ;
#150 = LOCAL_TIME ( 18, 18, 52.00000000000000000, #125 ) ;
#151 = LINE ( 'NONE', #202, #274 ) ;
#152 = VERTEX_POINT ( 'NONE', #25 ) ;
#153 = MECHANICAL_CONTEXT ( 'NONE', #123, 'mechanical' ) ;
#154 = CARTESIAN_POINT ( 'NONE',  ( -125.0000000000000000, -140.0000000000000000, -125.0000000000000000 ) ) ;
#155 = VECTOR ( 'NONE', #308, 1000.000000000000000 ) ;
#156 = EDGE_CURVE ( 'NONE', #231, #57, #151, .T. ) ;
#157 = CC_DESIGN_PERSON_AND_ORGANIZATION_ASSIGNMENT ( #242, #249, ( #355 ) ) ;
#158 = COORDINATED_UNIVERSAL_TIME_OFFSET ( 1, 0, .AHEAD. ) ;
#159 = DATE_TIME_ROLE ( 'creation_date' ) ;
#160 = DIRECTION ( 'NONE',  ( 0.000000000000000000, 1.000000000000000000, 0.000000000000000000 ) ) ;
#161 = DIRECTION ( 'NONE',  ( -0.000000000000000000, 0.000000000000000000, 1.000000000000000000 ) ) ;
#162 = PLANE ( 'NONE',  #270 ) ;
#163 = EDGE_CURVE ( 'NONE', #121, #377, #254, .T. ) ;
#164 = LINE ( 'NONE', #332, #8 ) ;
#165 = EDGE_CURVE ( 'NONE', #180, #291, #280, .T. ) ;
#166 = LINE ( 'NONE', #271, #252 ) ;
#167 = DATE_AND_TIME ( #276, #92 ) ;
#168 = ORIENTED_EDGE ( 'NONE', *, *, #357, .T. ) ;
#169 = CARTESIAN_POINT ( 'NONE',  ( -125.0000000000000000, -140.0000000000000000, 124.9999999999999858 ) ) ;
#170 = ORIENTED_EDGE ( 'NONE', *, *, #7, .F. ) ;
#171 = CARTESIAN_POINT ( 'NONE',  ( -125.0000000000000000, -140.0000000000000000, -125.0000000000000000 ) ) ;
#172 = VECTOR ( 'NONE', #31, 1000.000000000000000 ) ;
#173 = ORIENTED_EDGE ( 'NONE', *, *, #312, .T. ) ;
#174 = LINE ( 'NONE', #256, #172 ) ;
#175 = ORIENTED_EDGE ( 'NONE', *, *, #182, .T. ) ;
#176 = DIRECTION ( 'NONE',  ( 0.000000000000000000, 0.000000000000000000, 1.000000000000000000 ) ) ;
#177 = VERTEX_POINT ( 'NONE', #89 ) ;
#178 = CARTESIAN_POINT ( 'NONE',  ( 125.0000000000000000, -140.0000000000000000, -125.0000000000000000 ) ) ;
#179 = EDGE_CURVE ( 'NONE', #317, #362, #2, .T. ) ;
#180 = VERTEX_POINT ( 'NONE', #283 ) ;
#181 = CARTESIAN_POINT ( 'NONE',  ( -125.0000000000000000, -140.0000000000000000, -125.0000000000000000 ) ) ;
#182 = EDGE_CURVE ( 'NONE', #291, #121, #120, .T. ) ;
#183 = DIRECTION ( 'NONE',  ( 1.000000000000000000, 0.000000000000000000, -0.000000000000000000 ) ) ;
#184 = APPLICATION_PROTOCOL_DEFINITION ( 'international standard', 'config_control_design', 1994, #123 ) ;
#185 = CC_DESIGN_APPROVAL ( #352, ( #186 ) ) ;
#186 = PRODUCT_DEFINITION ( 'UNKNOWN', '', #355, #265 ) ;
#187 = AXIS2_PLACEMENT_3D ( 'NONE', #345, #339, #84 ) ;
#188 = LINE ( 'NONE', #47, #132 ) ;
#189 = DIRECTION ( 'NONE',  ( 0.000000000000000000, 1.000000000000000000, 0.000000000000000000 ) ) ;
#190 = FACE_OUTER_BOUND ( 'NONE', #118, .T. ) ;
#191 = CARTESIAN_POINT ( 'NONE',  ( -599.9999999999998863, 0.000000000000000000, 500.0000000000002274 ) ) ;
#192 = VECTOR ( 'NONE', #105, 1000.000000000000000 ) ;
#193 = CARTESIAN_POINT ( 'NONE',  ( 0.000000000000000000, -140.0000000000000000, 0.000000000000000000 ) ) ;
#194 = ORIENTED_EDGE ( 'NONE', *, *, #7, .T. ) ;
#195 = LINE ( 'NONE', #148, #210 ) ;
#196 = CARTESIAN_POINT ( 'NONE',  ( -599.9999999999998863, 0.000000000000000000, -499.9999999999999432 ) ) ;
#197 = VECTOR ( 'NONE', #374, 1000.000000000000000 ) ;
#198 = ORIENTED_EDGE ( 'NONE', *, *, #83, .F. ) ;
#199 = DIRECTION ( 'NONE',  ( 1.000000000000000000, 0.000000000000000000, 0.000000000000000000 ) ) ;
#200 = ORIENTED_EDGE ( 'NONE', *, *, #201, .F. ) ;
#201 = EDGE_CURVE ( 'NONE', #57, #124, #290, .T. ) ;
#202 = CARTESIAN_POINT ( 'NONE',  ( -599.9999999999998863, -40.00000000000000000, -499.9999999999999432 ) ) ;
#203 = ORIENTED_EDGE ( 'NONE', *, *, #357, .F. ) ;
#204 = APPROVAL_STATUS ( 'not_yet_approved' ) ;
#205 = VECTOR ( 'NONE', #209, 1000.000000000000000 ) ;
#206 = ORIENTED_EDGE ( 'NONE', *, *, #96, .F. ) ;
#207 = FACE_OUTER_BOUND ( 'NONE', #310, .T. ) ;
#208 = PERSON_AND_ORGANIZATION_ROLE ( 'design_owner' ) ;
#209 = DIRECTION ( 'NONE',  ( -0.000000000000000000, -0.000000000000000000, -1.000000000000000000 ) ) ;
#210 = VECTOR ( 'NONE', #259, 1000.000000000000000 ) ;
#211 = PERSON ( 'UNSPECIFIED', 'UNSPECIFIED', 'UNSPECIFIED', ('UNSPECIFIED'), ('UNSPECIFIED'), ('UNSPECIFIED') ) ;
#212 = PRODUCT_DEFINITION_SHAPE ( 'NONE', 'NONE',  #186 ) ;
#213 = PLANE ( 'NONE',  #294 ) ;
#214 = VECTOR ( 'NONE', #70, 1000.000000000000000 ) ;
#215 = DIRECTION ( 'NONE',  ( -0.000000000000000000, 1.000000000000000000, -0.000000000000000000 ) ) ;
#216 = ADVANCED_FACE ( 'NONE', ( #224, #311 ), #54, .T. ) ;
#217 = PLANE ( 'NONE',  #62 ) ;
#218 = DIRECTION ( 'NONE',  ( 0.000000000000000000, 0.000000000000000000, 1.000000000000000000 ) ) ;
#219 = CARTESIAN_POINT ( 'NONE',  ( 125.0000000000000000, -40.00000000000000000, -125.0000000000000000 ) ) ;
#220 = ORIENTED_EDGE ( 'NONE', *, *, #13, .F. ) ;
#221 = CARTESIAN_POINT ( 'NONE',  ( 600.0000000000001137, -40.00000000000000000, 500.0000000000002274 ) ) ;
#222 = PERSON_AND_ORGANIZATION_ROLE ( 'design_supplier' ) ;
#223 = ORIENTED_EDGE ( 'NONE', *, *, #107, .F. ) ;
#224 = FACE_BOUND ( 'NONE', #258, .T. ) ;
#225 = EDGE_LOOP ( 'NONE', ( #170, #263, #1, #30 ) ) ;
#226 = FACE_OUTER_BOUND ( 'NONE', #289, .T. ) ;
#227 = EDGE_CURVE ( 'NONE', #152, #177, #140, .T. ) ;
#228 = VECTOR ( 'NONE', #106, 1000.000000000000000 ) ;
#229 = ORIENTED_EDGE ( 'NONE', *, *, #300, .F. ) ;
#230 = CARTESIAN_POINT ( 'NONE',  ( 600.0000000000001137, -40.00000000000000000, -499.9999999999999432 ) ) ;
#231 = VERTEX_POINT ( 'NONE', #292 ) ;
#232 = DIRECTION ( 'NONE',  ( -1.000000000000000000, -0.000000000000000000, -0.000000000000000000 ) ) ;
#233 = EDGE_LOOP ( 'NONE', ( #350, #223, #200, #136 ) ) ;
#234 = CALENDAR_DATE ( 2026, 23, 5 ) ;
#235 = AXIS2_PLACEMENT_3D ( 'NONE', #368, #218, #334 ) ;
#236 = DIRECTION ( 'NONE',  ( -1.000000000000000000, 0.000000000000000000, 0.000000000000000000 ) ) ;
#237 = DIRECTION ( 'NONE',  ( 0.000000000000000000, 0.000000000000000000, 1.000000000000000000 ) ) ;
#238 = PERSON_AND_ORGANIZATION_ROLE ( 'creator' ) ;
#239 = APPROVAL_DATE_TIME ( #301, #352 ) ;
#240 = APPROVAL_PERSON_ORGANIZATION ( #361, #343, #264 ) ;
#241 = DIRECTION ( 'NONE',  ( 0.000000000000000000, 0.000000000000000000, -1.000000000000000000 ) ) ;
#242 = PERSON_AND_ORGANIZATION ( #211, #42 ) ;
#243 = EDGE_CURVE ( 'NONE', #177, #285, #320, .T. ) ;
#244 = CARTESIAN_POINT ( 'NONE',  ( -125.0000000000000000, -140.0000000000000000, -125.0000000000000000 ) ) ;
#245 = EDGE_CURVE ( 'NONE', #152, #231, #174, .T. ) ;
#246 = CARTESIAN_POINT ( 'NONE',  ( -125.0000000000000000, -140.0000000000000000, -125.0000000000000000 ) ) ;
#247 = CARTESIAN_POINT ( 'NONE',  ( -599.9999999999998863, 0.000000000000000000, 500.0000000000002274 ) ) ;
#248 = FACE_OUTER_BOUND ( 'NONE', #225, .T. ) ;
#249 = PERSON_AND_ORGANIZATION_ROLE ( 'creator' ) ;
#250 = ORIENTED_EDGE ( 'NONE', *, *, #165, .T. ) ;
#251 = DIRECTION ( 'NONE',  ( 0.000000000000000000, 0.000000000000000000, -1.000000000000000000 ) ) ;
#252 = VECTOR ( 'NONE', #189, 1000.000000000000000 ) ;
#253 = EDGE_LOOP ( 'NONE', ( #74, #282, #353, #370 ) ) ;
#254 = LINE ( 'NONE', #28, #284 ) ;
#255 = EDGE_LOOP ( 'NONE', ( #348, #198, #77, #319 ) ) ;
#256 = CARTESIAN_POINT ( 'NONE',  ( 600.0000000000001137, -40.00000000000000000, 500.0000000000002274 ) ) ;
#257 = EDGE_CURVE ( 'NONE', #377, #317, #376, .T. ) ;
#258 = EDGE_LOOP ( 'NONE', ( #142, #139, #27, #321 ) ) ;
#259 = DIRECTION ( 'NONE',  ( -1.000000000000000000, -0.000000000000000000, -0.000000000000000000 ) ) ;
#260 = VECTOR ( 'NONE', #215, 1000.000000000000000 ) ;
#261 = ORIENTED_EDGE ( 'NONE', *, *, #114, .T. ) ;
#262 = CARTESIAN_POINT ( 'NONE',  ( -599.9999999999998863, 0.000000000000000000, -499.9999999999999432 ) ) ;
#263 = ORIENTED_EDGE ( 'NONE', *, *, #5, .F. ) ;
#264 = APPROVAL_ROLE ( '' ) ;
#265 = DESIGN_CONTEXT ( 'detailed design', #85, 'design' ) ;
#266 = APPROVAL_STATUS ( 'not_yet_approved' ) ;
#267 = CC_DESIGN_PERSON_AND_ORGANIZATION_ASSIGNMENT ( #95, #208, ( #144 ) ) ;
#268 =( NAMED_UNIT ( * ) SI_UNIT ( $, .STERADIAN. ) SOLID_ANGLE_UNIT ( ) );
#269 = APPROVAL ( #369, 'UNSPECIFIED' ) ;
#270 = AXIS2_PLACEMENT_3D ( 'NONE', #193, #160, #304 ) ;
#271 = CARTESIAN_POINT ( 'NONE',  ( -599.9999999999998863, -40.00000000000000000, 500.0000000000002274 ) ) ;
#272 = DIRECTION ( 'NONE',  ( -1.000000000000000000, 0.000000000000000000, -0.000000000000000000 ) ) ;
#273 = LINE ( 'NONE', #247, #336 ) ;
#274 = VECTOR ( 'NONE', #56, 1000.000000000000000 ) ;
#275 = CARTESIAN_POINT ( 'NONE',  ( 600.0000000000001137, -40.00000000000000000, 500.0000000000002274 ) ) ;
#276 = CALENDAR_DATE ( 2026, 23, 5 ) ;
#277 = FACE_OUTER_BOUND ( 'NONE', #51, .T. ) ;
#278 = ADVANCED_BREP_SHAPE_REPRESENTATION ( 'platefomeMobile_D\X2\00e9\X0\faut_sldprt', ( #104, #99 ), #379 ) ;
#279 = ORIENTED_EDGE ( 'NONE', *, *, #79, .F. ) ;
#280 = LINE ( 'NONE', #171, #327 ) ;
#281 = COORDINATED_UNIVERSAL_TIME_OFFSET ( 1, 0, .AHEAD. ) ;
#282 = ORIENTED_EDGE ( 'NONE', *, *, #182, .F. ) ;
#283 = CARTESIAN_POINT ( 'NONE',  ( -125.0000000000000000, -140.0000000000000000, -125.0000000000000000 ) ) ;
#284 = VECTOR ( 'NONE', #176, 1000.000000000000000 ) ;
#285 = VERTEX_POINT ( 'NONE', #372 ) ;
#286 = ADVANCED_FACE ( 'NONE', ( #226 ), #111, .F. ) ;
#287 = CARTESIAN_POINT ( 'NONE',  ( -125.0000000000000000, -140.0000000000000000, 124.9999999999999858 ) ) ;
#288 = PERSON_AND_ORGANIZATION ( #211, #42 ) ;
#289 = EDGE_LOOP ( 'NONE', ( #338, #23, #261, #194 ) ) ;
#290 = LINE ( 'NONE', #113, #155 ) ;
#291 = VERTEX_POINT ( 'NONE', #75 ) ;
#292 = CARTESIAN_POINT ( 'NONE',  ( 600.0000000000001137, -40.00000000000000000, -499.9999999999999432 ) ) ;
#293 = VECTOR ( 'NONE', #61, 1000.000000000000000 ) ;
#294 = AXIS2_PLACEMENT_3D ( 'NONE', #246, #161, #305 ) ;
#295 = ORIENTED_EDGE ( 'NONE', *, *, #227, .F. ) ;
#296 = PLANE ( 'NONE',  #306 ) ;
#297 = CARTESIAN_POINT ( 'NONE',  ( 125.0000000000000000, -140.0000000000000000, 124.9999999999999858 ) ) ;
#298 = VECTOR ( 'NONE', #251, 1000.000000000000000 ) ;
#299 = PERSON_AND_ORGANIZATION ( #211, #42 ) ;
#300 = EDGE_CURVE ( 'NONE', #341, #149, #195, .T. ) ;
#301 = DATE_AND_TIME ( #10, #102 ) ;
#302 = AXIS2_PLACEMENT_3D ( 'NONE', #36, #236, #356 ) ;
#303 = LINE ( 'NONE', #191, #228 ) ;
#304 = DIRECTION ( 'NONE',  ( 0.000000000000000000, -0.000000000000000000, 1.000000000000000000 ) ) ;
#305 = DIRECTION ( 'NONE',  ( 1.000000000000000000, 0.000000000000000000, 0.000000000000000000 ) ) ;
#306 = AXIS2_PLACEMENT_3D ( 'NONE', #154, #183, #94 ) ;
#307 = DIRECTION ( 'NONE',  ( 1.000000000000000000, -0.000000000000000000, 0.000000000000000000 ) ) ;
#308 = DIRECTION ( 'NONE',  ( -0.000000000000000000, -0.000000000000000000, 1.000000000000000000 ) ) ;
#309 = COORDINATED_UNIVERSAL_TIME_OFFSET ( 1, 0, .AHEAD. ) ;
#310 = EDGE_LOOP ( 'NONE', ( #314, #33, #203, #60 ) ) ;
#311 = FACE_OUTER_BOUND ( 'NONE', #233, .T. ) ;
#312 = EDGE_CURVE ( 'NONE', #231, #285, #378, .T. ) ;
#313 = CALENDAR_DATE ( 2026, 23, 5 ) ;
#314 = ORIENTED_EDGE ( 'NONE', *, *, #179, .T. ) ;
#315 = CARTESIAN_POINT ( 'NONE',  ( 600.0000000000001137, 0.000000000000000000, 500.0000000000002274 ) ) ;
#316 = LOCAL_TIME ( 18, 18, 52.00000000000000000, #359 ) ;
#317 = VERTEX_POINT ( 'NONE', #58 ) ;
#318 = DIRECTION ( 'NONE',  ( 0.000000000000000000, 0.000000000000000000, -1.000000000000000000 ) ) ;
#319 = ORIENTED_EDGE ( 'NONE', *, *, #5, .T. ) ;
#320 = LINE ( 'NONE', #315, #298 ) ;
#321 = ORIENTED_EDGE ( 'NONE', *, *, #257, .F. ) ;
#322 = VECTOR ( 'NONE', #232, 1000.000000000000000 ) ;
#323 = CARTESIAN_POINT ( 'NONE',  ( -125.0000000000000000, -40.00000000000000000, -125.0000000000000000 ) ) ;
#324 = EDGE_CURVE ( 'NONE', #285, #147, #34, .T. ) ;
#325 = EDGE_CURVE ( 'NONE', #362, #121, #351, .T. ) ;
#326 =( LENGTH_UNIT ( ) NAMED_UNIT ( * ) SI_UNIT ( .MILLI., .METRE. ) );
#327 = VECTOR ( 'NONE', #199, 1000.000000000000000 ) ;
#328 = CARTESIAN_POINT ( 'NONE',  ( -125.0000000000000000, -40.00000000000000000, -125.0000000000000000 ) ) ;
#329 = PLANE ( 'NONE',  #48 ) ;
#330 = PRODUCT_RELATED_PRODUCT_CATEGORY ( 'detail', '', ( #144 ) ) ;
#331 = APPROVAL_PERSON_ORGANIZATION ( #299, #352, #38 ) ;
#332 = CARTESIAN_POINT ( 'NONE',  ( -599.9999999999998863, -40.00000000000000000, -499.9999999999999432 ) ) ;
#333 = CARTESIAN_POINT ( 'NONE',  ( -599.9999999999998863, 0.000000000000000000, 500.0000000000002274 ) ) ;
#334 = DIRECTION ( 'NONE',  ( 1.000000000000000000, 0.000000000000000000, -0.000000000000000000 ) ) ;
#335 = ADVANCED_FACE ( 'NONE', ( #207 ), #296, .F. ) ;
#336 = VECTOR ( 'NONE', #134, 1000.000000000000000 ) ;
#337 = CARTESIAN_POINT ( 'NONE',  ( -599.9999999999998863, -40.00000000000000000, 500.0000000000002274 ) ) ;
#338 = ORIENTED_EDGE ( 'NONE', *, *, #243, .T. ) ;
#339 = DIRECTION ( 'NONE',  ( 0.000000000000000000, -1.000000000000000000, 0.000000000000000000 ) ) ;
#340 = SECURITY_CLASSIFICATION_LEVEL ( 'unclassified' ) ;
#341 = VERTEX_POINT ( 'NONE', #297 ) ;
#342 = DIRECTION ( 'NONE',  ( 0.000000000000000000, 1.000000000000000000, 0.000000000000000000 ) ) ;
#343 = APPROVAL ( #204, 'UNSPECIFIED' ) ;
#344 = ORIENTED_EDGE ( 'NONE', *, *, #83, .T. ) ;
#345 = CARTESIAN_POINT ( 'NONE',  ( 0.000000000000000000, 0.000000000000000000, 0.000000000000000000 ) ) ;
#346 = AXIS2_PLACEMENT_3D ( 'NONE', #287, #318, #143 ) ;
#347 = PERSON_AND_ORGANIZATION_ROLE ( 'classification_officer' ) ;
#348 = ORIENTED_EDGE ( 'NONE', *, *, #114, .F. ) ;
#349 = DIRECTION ( 'NONE',  ( 0.000000000000000000, 1.000000000000000000, 0.000000000000000000 ) ) ;
#350 = ORIENTED_EDGE ( 'NONE', *, *, #245, .F. ) ;
#351 = LINE ( 'NONE', #328, #293 ) ;
#352 = APPROVAL ( #266, 'UNSPECIFIED' ) ;
#353 = ORIENTED_EDGE ( 'NONE', *, *, #165, .F. ) ;
#354 = DATE_AND_TIME ( #234, #150 ) ;
#355 = PRODUCT_DEFINITION_FORMATION_WITH_SPECIFIED_SOURCE ( 'ANY', '', #144, .NOT_KNOWN. ) ;
#356 = DIRECTION ( 'NONE',  ( 0.000000000000000000, 0.000000000000000000, 1.000000000000000000 ) ) ;
#357 = EDGE_CURVE ( 'NONE', #149, #180, #126, .T. ) ;
#358 = DIRECTION ( 'NONE',  ( 1.000000000000000000, 0.000000000000000000, 0.000000000000000000 ) ) ;
#359 = COORDINATED_UNIVERSAL_TIME_OFFSET ( 1, 0, .AHEAD. ) ;
#360 = APPROVAL_PERSON_ORGANIZATION ( #18, #269, #367 ) ;
#361 = PERSON_AND_ORGANIZATION ( #211, #42 ) ;
#362 = VERTEX_POINT ( 'NONE', #323 ) ;
#363 = DIRECTION ( 'NONE',  ( 0.000000000000000000, 0.000000000000000000, 1.000000000000000000 ) ) ;
#364 = LINE ( 'NONE', #45, #192 ) ;
#365 = ADVANCED_FACE ( 'NONE', ( #128 ), #6, .T. ) ;
#366 = DIRECTION ( 'NONE',  ( 0.000000000000000000, 1.000000000000000000, 0.000000000000000000 ) ) ;
#367 = APPROVAL_ROLE ( '' ) ;
#368 = CARTESIAN_POINT ( 'NONE',  ( -599.9999999999998863, -40.00000000000000000, 500.0000000000002274 ) ) ;
#369 = APPROVAL_STATUS ( 'not_yet_approved' ) ;
#370 = ORIENTED_EDGE ( 'NONE', *, *, #63, .T. ) ;
#371 = VECTOR ( 'NONE', #11, 1000.000000000000000 ) ;
#372 = CARTESIAN_POINT ( 'NONE',  ( 600.0000000000001137, 0.000000000000000000, -499.9999999999999432 ) ) ;
#373 = ORIENTED_EDGE ( 'NONE', *, *, #13, .T. ) ;
#374 = DIRECTION ( 'NONE',  ( -0.000000000000000000, 1.000000000000000000, -0.000000000000000000 ) ) ;
#375 = ORIENTED_EDGE ( 'NONE', *, *, #312, .F. ) ;
#376 = LINE ( 'NONE', #117, #82 ) ;
#377 = VERTEX_POINT ( 'NONE', #64 ) ;
#378 = LINE ( 'NONE', #230, #119 ) ;
#379 =( GEOMETRIC_REPRESENTATION_CONTEXT ( 3 ) GLOBAL_UNCERTAINTY_ASSIGNED_CONTEXT ( ( #59 ) ) GLOBAL_UNIT_ASSIGNED_CONTEXT ( ( #326, #9, #268 ) ) REPRESENTATION_CONTEXT ( 'NONE', 'WORKASPACE' ) );
ENDSEC;
END-ISO-10303-21;
