ISO-10303-21;
HEADER;
FILE_DESCRIPTION (( 'STEP AP203' ),
    '1' );
FILE_NAME ('plateformeFixe_Défaut_sldprt.STEP',
    '2026-05-23T16:18:54',
    ( '' ),
    ( '' ),
    'SwSTEP 2.0',
    'SolidWorks 2023',
    '' );
FILE_SCHEMA (( 'CONFIG_CONTROL_DESIGN' ));
ENDSEC;

DATA;
#1 = CARTESIAN_POINT ( 'NONE',  ( -164.9999999999999716, -200.0000000000000000, 165.0000000000000568 ) ) ;
#2 = EDGE_LOOP ( 'NONE', ( #284, #168, #295, #101 ) ) ;
#3 = DIRECTION ( 'NONE',  ( -0.000000000000000000, -0.000000000000000000, 1.000000000000000000 ) ) ;
#4 = APPROVAL_ROLE ( '' ) ;
#5 = ORIENTED_EDGE ( 'NONE', *, *, #126, .T. ) ;
#6 = FACE_BOUND ( 'NONE', #170, .T. ) ;
#7 = EDGE_CURVE ( 'NONE', #131, #133, #125, .T. ) ;
#8 = PERSON_AND_ORGANIZATION ( #205, #42 ) ;
#9 = CARTESIAN_POINT ( 'NONE',  ( -164.9999999999999716, 0.000000000000000000, 165.0000000000000568 ) ) ;
#10 = ORIENTED_EDGE ( 'NONE', *, *, #197, .T. ) ;
#11 = EDGE_CURVE ( 'NONE', #131, #275, #113, .T. ) ;
#12 = AXIS2_PLACEMENT_3D ( 'NONE', #15, #226, #299 ) ;
#13 = APPROVAL_DATE_TIME ( #240, #235 ) ;
#14 = ORIENTED_EDGE ( 'NONE', *, *, #194, .T. ) ;
#15 = CARTESIAN_POINT ( 'NONE',  ( -164.9999999999999716, -200.0000000000000000, 165.0000000000000568 ) ) ;
#16 = EDGE_CURVE ( 'NONE', #246, #344, #144, .T. ) ;
#17 = CARTESIAN_POINT ( 'NONE',  ( -125.0000000000000284, -200.0000000000000000, 125.0000000000000000 ) ) ;
#18 = VECTOR ( 'NONE', #223, 1000.000000000000000 ) ;
#19 = CARTESIAN_POINT ( 'NONE',  ( 124.9999999999999716, -200.0000000000000000, 125.0000000000000000 ) ) ;
#20 = ORIENTED_EDGE ( 'NONE', *, *, #225, .F. ) ;
#21 = EDGE_CURVE ( 'NONE', #306, #246, #368, .T. ) ;
#22 = LINE ( 'NONE', #273, #291 ) ;
#23 = ORIENTED_EDGE ( 'NONE', *, *, #180, .F. ) ;
#24 = CARTESIAN_POINT ( 'NONE',  ( 165.0000000000000284, -200.0000000000000000, 165.0000000000000568 ) ) ;
#25 = ORIENTED_EDGE ( 'NONE', *, *, #197, .F. ) ;
#26 = VECTOR ( 'NONE', #132, 1000.000000000000000 ) ;
#27 = DIRECTION ( 'NONE',  ( 0.000000000000000000, 0.000000000000000000, 1.000000000000000000 ) ) ;
#28 = VERTEX_POINT ( 'NONE', #232 ) ;
#29 = LINE ( 'NONE', #31, #345 ) ;
#30 = ORIENTED_EDGE ( 'NONE', *, *, #269, .F. ) ;
#31 = CARTESIAN_POINT ( 'NONE',  ( 165.0000000000000284, -200.0000000000000000, -164.9999999999999432 ) ) ;
#32 = DIRECTION ( 'NONE',  ( 1.000000000000000000, -0.000000000000000000, 0.000000000000000000 ) ) ;
#33 = DATE_AND_TIME ( #89, #81 ) ;
#34 = DESIGN_CONTEXT ( 'detailed design', #339, 'design' ) ;
#35 = AXIS2_PLACEMENT_3D ( 'NONE', #352, #84, #119 ) ;
#36 = DATE_TIME_ROLE ( 'classification_date' ) ;
#37 = FACE_OUTER_BOUND ( 'NONE', #160, .T. ) ;
#38 = EDGE_CURVE ( 'NONE', #133, #141, #65, .T. ) ;
#39 = DIRECTION ( 'NONE',  ( -1.000000000000000000, 0.000000000000000000, -0.000000000000000000 ) ) ;
#40 = CARTESIAN_POINT ( 'NONE',  ( -125.0000000000000284, 0.000000000000000000, -125.0000000000000000 ) ) ;
#41 = LINE ( 'NONE', #358, #178 ) ;
#42 = ORGANIZATION ( 'UNSPECIFIED', 'UNSPECIFIED', '' ) ;
#43 = ORIENTED_EDGE ( 'NONE', *, *, #298, .T. ) ;
#44 = LINE ( 'NONE', #193, #121 ) ;
#45 = VERTEX_POINT ( 'NONE', #185 ) ;
#46 = CC_DESIGN_PERSON_AND_ORGANIZATION_ASSIGNMENT ( #169, #283, ( #315 ) ) ;
#47 = LINE ( 'NONE', #247, #64 ) ;
#48 = EDGE_LOOP ( 'NONE', ( #248, #208, #137, #123 ) ) ;
#49 = DIRECTION ( 'NONE',  ( 0.000000000000000000, 1.000000000000000000, 0.000000000000000000 ) ) ;
#50 = ORIENTED_EDGE ( 'NONE', *, *, #126, .F. ) ;
#51 = ORIENTED_EDGE ( 'NONE', *, *, #187, .F. ) ;
#52 = CARTESIAN_POINT ( 'NONE',  ( 124.9999999999999716, -200.0000000000000000, 125.0000000000000000 ) ) ;
#53 = DIRECTION ( 'NONE',  ( 0.000000000000000000, 0.000000000000000000, -1.000000000000000000 ) ) ;
#54 = CARTESIAN_POINT ( 'NONE',  ( -164.9999999999999716, -200.0000000000000000, -164.9999999999999432 ) ) ;
#55 = VECTOR ( 'NONE', #95, 1000.000000000000000 ) ;
#56 = DIRECTION ( 'NONE',  ( -1.000000000000000000, 0.000000000000000000, -0.000000000000000000 ) ) ;
#57 = EDGE_CURVE ( 'NONE', #344, #106, #323, .T. ) ;
#58 = COORDINATED_UNIVERSAL_TIME_OFFSET ( 1, 0, .AHEAD. ) ;
#59 = CARTESIAN_POINT ( 'NONE',  ( 165.0000000000000284, 0.000000000000000000, 165.0000000000000568 ) ) ;
#60 = PERSON_AND_ORGANIZATION_ROLE ( 'design_supplier' ) ;
#61 = CARTESIAN_POINT ( 'NONE',  ( -125.0000000000000284, -200.0000000000000000, -125.0000000000000000 ) ) ;
#62 = APPROVAL_DATE_TIME ( #354, #372 ) ;
#63 = CARTESIAN_POINT ( 'NONE',  ( -164.9999999999999716, -200.0000000000000000, 165.0000000000000568 ) ) ;
#64 = VECTOR ( 'NONE', #68, 1000.000000000000000 ) ;
#65 = LINE ( 'NONE', #9, #158 ) ;
#66 = CC_DESIGN_PERSON_AND_ORGANIZATION_ASSIGNMENT ( #236, #60, ( #364 ) ) ;
#67 = DIRECTION ( 'NONE',  ( 0.000000000000000000, 0.000000000000000000, -1.000000000000000000 ) ) ;
#68 = DIRECTION ( 'NONE',  ( 0.000000000000000000, 1.000000000000000000, 0.000000000000000000 ) ) ;
#69 = EDGE_LOOP ( 'NONE', ( #23, #51, #5, #43 ) ) ;
#70 = PLANE ( 'NONE',  #211 ) ;
#71 = LOCAL_TIME ( 18, 18, 54.00000000000000000, #285 ) ;
#72 = ORIENTED_EDGE ( 'NONE', *, *, #180, .T. ) ;
#73 = LINE ( 'NONE', #24, #26 ) ;
#74 = ORIENTED_EDGE ( 'NONE', *, *, #282, .F. ) ;
#75 = CARTESIAN_POINT ( 'NONE',  ( -125.0000000000000284, 0.000000000000000000, 125.0000000000000000 ) ) ;
#76 = ORIENTED_EDGE ( 'NONE', *, *, #16, .F. ) ;
#77 = VECTOR ( 'NONE', #3, 1000.000000000000000 ) ;
#78 = EDGE_CURVE ( 'NONE', #219, #133, #262, .T. ) ;
#79 = LINE ( 'NONE', #174, #280 ) ;
#80 = PRODUCT_DEFINITION ( 'UNKNOWN', '', #364, #34 ) ;
#81 = LOCAL_TIME ( 18, 18, 54.00000000000000000, #58 ) ;
#82 = DIRECTION ( 'NONE',  ( 0.000000000000000000, 0.000000000000000000, 1.000000000000000000 ) ) ;
#83 = CALENDAR_DATE ( 2026, 23, 5 ) ;
#84 = DIRECTION ( 'NONE',  ( 0.000000000000000000, 0.000000000000000000, 1.000000000000000000 ) ) ;
#85 = VERTEX_POINT ( 'NONE', #264 ) ;
#86 = PERSON_AND_ORGANIZATION ( #205, #42 ) ;
#87 = CARTESIAN_POINT ( 'NONE',  ( 165.0000000000000284, -200.0000000000000000, 165.0000000000000568 ) ) ;
#88 = AXIS2_PLACEMENT_3D ( 'NONE', #287, #32, #202 ) ;
#89 = CALENDAR_DATE ( 2026, 23, 5 ) ;
#90 = ORIENTED_EDGE ( 'NONE', *, *, #346, .T. ) ;
#91 = AXIS2_PLACEMENT_3D ( 'NONE', #336, #245, #39 ) ;
#92 = CARTESIAN_POINT ( 'NONE',  ( 165.0000000000000284, -200.0000000000000000, -164.9999999999999432 ) ) ;
#93 = EDGE_LOOP ( 'NONE', ( #215, #30, #96, #251 ) ) ;
#94 = ADVANCED_FACE ( 'NONE', ( #6, #152 ), #267, .F. ) ;
#95 = DIRECTION ( 'NONE',  ( -0.000000000000000000, -0.000000000000000000, 1.000000000000000000 ) ) ;
#96 = ORIENTED_EDGE ( 'NONE', *, *, #57, .F. ) ;
#97 = FACE_OUTER_BOUND ( 'NONE', #2, .T. ) ;
#98 = EDGE_LOOP ( 'NONE', ( #72, #366, #333, #142 ) ) ;
#99 = AXIS2_PLACEMENT_3D ( 'NONE', #213, #237, #182 ) ;
#100 = CARTESIAN_POINT ( 'NONE',  ( -125.0000000000000284, -200.0000000000000000, -125.0000000000000000 ) ) ;
#101 = ORIENTED_EDGE ( 'NONE', *, *, #187, .T. ) ;
#102 = APPLICATION_CONTEXT ( 'configuration controlled 3d designs of mechanical parts and assemblies' ) ;
#103 = DIRECTION ( 'NONE',  ( -1.000000000000000000, -0.000000000000000000, -0.000000000000000000 ) ) ;
#104 = ORIENTED_EDGE ( 'NONE', *, *, #346, .F. ) ;
#105 = FACE_OUTER_BOUND ( 'NONE', #341, .T. ) ;
#106 = VERTEX_POINT ( 'NONE', #61 ) ;
#107 = CARTESIAN_POINT ( 'NONE',  ( -125.0000000000000284, -200.0000000000000000, 125.0000000000000000 ) ) ;
#108 = PERSON_AND_ORGANIZATION ( #205, #42 ) ;
#109 = APPROVAL_PERSON_ORGANIZATION ( #86, #372, #321 ) ;
#110 = PRODUCT_DEFINITION_SHAPE ( 'NONE', 'NONE',  #80 ) ;
#111 = FACE_BOUND ( 'NONE', #48, .T. ) ;
#112 = ADVANCED_FACE ( 'NONE', ( #37 ), #179, .F. ) ;
#113 = LINE ( 'NONE', #1, #261 ) ;
#114 =( NAMED_UNIT ( * ) PLANE_ANGLE_UNIT ( ) SI_UNIT ( $, .RADIAN. ) );
#115 = AXIS2_PLACEMENT_3D ( 'NONE', #54, #53, #56 ) ;
#116 = EDGE_LOOP ( 'NONE', ( #221, #20, #337, #309 ) ) ;
#117 = DIRECTION ( 'NONE',  ( -1.000000000000000000, -0.000000000000000000, -0.000000000000000000 ) ) ;
#118 = PERSON_AND_ORGANIZATION ( #205, #42 ) ;
#119 = DIRECTION ( 'NONE',  ( 1.000000000000000000, 0.000000000000000000, -0.000000000000000000 ) ) ;
#120 = CALENDAR_DATE ( 2026, 23, 5 ) ;
#121 = VECTOR ( 'NONE', #189, 1000.000000000000000 ) ;
#122 = ORIENTED_EDGE ( 'NONE', *, *, #11, .F. ) ;
#123 = ORIENTED_EDGE ( 'NONE', *, *, #21, .T. ) ;
#124 = CARTESIAN_POINT ( 'NONE',  ( -125.0000000000000284, 0.000000000000000000, -125.0000000000000000 ) ) ;
#125 = LINE ( 'NONE', #329, #204 ) ;
#126 = EDGE_CURVE ( 'NONE', #275, #190, #325, .T. ) ;
#127 = VECTOR ( 'NONE', #297, 1000.000000000000000 ) ;
#128 = CARTESIAN_POINT ( 'NONE',  ( 165.0000000000000284, 0.000000000000000000, 165.0000000000000568 ) ) ;
#129 = DIRECTION ( 'NONE',  ( 0.000000000000000000, 1.000000000000000000, 0.000000000000000000 ) ) ;
#130 = DIRECTION ( 'NONE',  ( -0.000000000000000000, -0.000000000000000000, 1.000000000000000000 ) ) ;
#131 = VERTEX_POINT ( 'NONE', #63 ) ;
#132 = DIRECTION ( 'NONE',  ( 0.000000000000000000, 1.000000000000000000, 0.000000000000000000 ) ) ;
#133 = VERTEX_POINT ( 'NONE', #207 ) ;
#134 = APPLICATION_PROTOCOL_DEFINITION ( 'international standard', 'config_control_design', 1994, #102 ) ;
#135 = ORIENTED_EDGE ( 'NONE', *, *, #338, .F. ) ;
#136 = CARTESIAN_POINT ( 'NONE',  ( -125.0000000000000284, -200.0000000000000000, 125.0000000000000000 ) ) ;
#137 = ORIENTED_EDGE ( 'NONE', *, *, #171, .T. ) ;
#138 = CARTESIAN_POINT ( 'NONE',  ( -125.0000000000000284, 0.000000000000000000, 125.0000000000000000 ) ) ;
#139 = APPROVAL_PERSON_ORGANIZATION ( #151, #235, #4 ) ;
#140 = PLANE ( 'NONE',  #88 ) ;
#141 = VERTEX_POINT ( 'NONE', #59 ) ;
#142 = ORIENTED_EDGE ( 'NONE', *, *, #38, .T. ) ;
#143 =( NAMED_UNIT ( * ) SI_UNIT ( $, .STERADIAN. ) SOLID_ANGLE_UNIT ( ) );
#144 = LINE ( 'NONE', #52, #148 ) ;
#145 = PERSON_AND_ORGANIZATION_ROLE ( 'creator' ) ;
#146 = CARTESIAN_POINT ( 'NONE',  ( -164.9999999999999716, 0.000000000000000000, 165.0000000000000568 ) ) ;
#147 = ADVANCED_FACE ( 'NONE', ( #210 ), #271, .F. ) ;
#148 = VECTOR ( 'NONE', #177, 1000.000000000000000 ) ;
#149 = DATE_AND_TIME ( #83, #71 ) ;
#150 = EDGE_CURVE ( 'NONE', #335, #28, #44, .T. ) ;
#151 = PERSON_AND_ORGANIZATION ( #205, #42 ) ;
#152 = FACE_OUTER_BOUND ( 'NONE', #98, .T. ) ;
#153 = AXIS2_PLACEMENT_3D ( 'NONE', #302, #361, #278 ) ;
#154 = ADVANCED_FACE ( 'NONE', ( #97 ), #305, .T. ) ;
#155 = CARTESIAN_POINT ( 'NONE',  ( 124.9999999999999716, 0.000000000000000000, -125.0000000000000000 ) ) ;
#156 = LINE ( 'NONE', #75, #55 ) ;
#157 = EDGE_CURVE ( 'NONE', #45, #219, #41, .T. ) ;
#158 = VECTOR ( 'NONE', #320, 1000.000000000000000 ) ;
#159 = DIRECTION ( 'NONE',  ( -1.000000000000000000, -0.000000000000000000, -0.000000000000000000 ) ) ;
#160 = EDGE_LOOP ( 'NONE', ( #164, #74, #227, #90 ) ) ;
#161 = LINE ( 'NONE', #40, #166 ) ;
#162 = EDGE_LOOP ( 'NONE', ( #224, #363, #292, #196 ) ) ;
#163 = LINE ( 'NONE', #17, #18 ) ;
#164 = ORIENTED_EDGE ( 'NONE', *, *, #150, .T. ) ;
#165 = ADVANCED_BREP_SHAPE_REPRESENTATION ( 'plateformeFixe_D\X2\00e9\X0\faut_sldprt', ( #304, #310 ), #191 ) ;
#166 = VECTOR ( 'NONE', #330, 1000.000000000000000 ) ;
#167 = PLANE ( 'NONE',  #115 ) ;
#168 = ORIENTED_EDGE ( 'NONE', *, *, #7, .F. ) ;
#169 = PERSON_AND_ORGANIZATION ( #205, #42 ) ;
#170 = EDGE_LOOP ( 'NONE', ( #313, #25, #303, #353 ) ) ;
#171 = EDGE_CURVE ( 'NONE', #106, #306, #163, .T. ) ;
#172 = APPROVAL_ROLE ( '' ) ;
#173 = EDGE_CURVE ( 'NONE', #277, #279, #161, .T. ) ;
#174 = CARTESIAN_POINT ( 'NONE',  ( 124.9999999999999716, -200.0000000000000000, -125.0000000000000000 ) ) ;
#175 = VECTOR ( 'NONE', #117, 1000.000000000000000 ) ;
#176 = PERSON_AND_ORGANIZATION ( #205, #42 ) ;
#177 = DIRECTION ( 'NONE',  ( 0.000000000000000000, 0.000000000000000000, -1.000000000000000000 ) ) ;
#178 = VECTOR ( 'NONE', #159, 1000.000000000000000 ) ;
#179 = PLANE ( 'NONE',  #35 ) ;
#180 = EDGE_CURVE ( 'NONE', #141, #45, #360, .T. ) ;
#181 = PERSON_AND_ORGANIZATION_ROLE ( 'creator' ) ;
#182 = DIRECTION ( 'NONE',  ( 0.000000000000000000, -0.000000000000000000, -1.000000000000000000 ) ) ;
#183 = EDGE_CURVE ( 'NONE', #190, #85, #332, .T. ) ;
#184 = CC_DESIGN_SECURITY_CLASSIFICATION ( #249, ( #364 ) ) ;
#185 = CARTESIAN_POINT ( 'NONE',  ( 165.0000000000000284, 0.000000000000000000, -164.9999999999999432 ) ) ;
#186 = EDGE_LOOP ( 'NONE', ( #10, #135, #76, #229 ) ) ;
#187 = EDGE_CURVE ( 'NONE', #275, #141, #73, .T. ) ;
#188 = CARTESIAN_POINT ( 'NONE',  ( 124.9999999999999716, -200.0000000000000000, 125.0000000000000000 ) ) ;
#189 = DIRECTION ( 'NONE',  ( 1.000000000000000000, 0.000000000000000000, 0.000000000000000000 ) ) ;
#190 = VERTEX_POINT ( 'NONE', #92 ) ;
#191 =( GEOMETRIC_REPRESENTATION_CONTEXT ( 3 ) GLOBAL_UNCERTAINTY_ASSIGNED_CONTEXT ( ( #369 ) ) GLOBAL_UNIT_ASSIGNED_CONTEXT ( ( #343, #114, #143 ) ) REPRESENTATION_CONTEXT ( 'NONE', 'WORKASPACE' ) );
#192 = PLANE ( 'NONE',  #91 ) ;
#193 = CARTESIAN_POINT ( 'NONE',  ( -125.0000000000000284, 0.000000000000000000, 125.0000000000000000 ) ) ;
#194 = EDGE_CURVE ( 'NONE', #279, #335, #156, .T. ) ;
#195 = FACE_OUTER_BOUND ( 'NONE', #93, .T. ) ;
#196 = ORIENTED_EDGE ( 'NONE', *, *, #225, .T. ) ;
#197 = EDGE_CURVE ( 'NONE', #28, #277, #22, .T. ) ;
#198 = FACE_OUTER_BOUND ( 'NONE', #69, .T. ) ;
#199 = ORIENTED_EDGE ( 'NONE', *, *, #171, .F. ) ;
#200 = FACE_OUTER_BOUND ( 'NONE', #253, .T. ) ;
#201 = EDGE_CURVE ( 'NONE', #85, #131, #274, .T. ) ;
#202 = DIRECTION ( 'NONE',  ( 0.000000000000000000, 0.000000000000000000, -1.000000000000000000 ) ) ;
#203 = FACE_OUTER_BOUND ( 'NONE', #162, .T. ) ;
#204 = VECTOR ( 'NONE', #259, 1000.000000000000000 ) ;
#205 = PERSON ( 'UNSPECIFIED', 'UNSPECIFIED', 'UNSPECIFIED', ('UNSPECIFIED'), ('UNSPECIFIED'), ('UNSPECIFIED') ) ;
#206 = CC_DESIGN_DATE_AND_TIME_ASSIGNMENT ( #33, #36, ( #249 ) ) ;
#207 = CARTESIAN_POINT ( 'NONE',  ( -164.9999999999999716, 0.000000000000000000, 165.0000000000000568 ) ) ;
#208 = ORIENTED_EDGE ( 'NONE', *, *, #57, .T. ) ;
#209 = CALENDAR_DATE ( 2026, 23, 5 ) ;
#210 = FACE_OUTER_BOUND ( 'NONE', #186, .T. ) ;
#211 = AXIS2_PLACEMENT_3D ( 'NONE', #365, #362, #340 ) ;
#212 = DATE_AND_TIME ( #265, #255 ) ;
#213 = CARTESIAN_POINT ( 'NONE',  ( 0.000000000000000000, 0.000000000000000000, 0.000000000000000000 ) ) ;
#214 = DATE_TIME_ROLE ( 'creation_date' ) ;
#215 = ORIENTED_EDGE ( 'NONE', *, *, #173, .T. ) ;
#216 = VECTOR ( 'NONE', #254, 1000.000000000000000 ) ;
#217 = CARTESIAN_POINT ( 'NONE',  ( 165.0000000000000284, -200.0000000000000000, 165.0000000000000568 ) ) ;
#218 = LINE ( 'NONE', #100, #243 ) ;
#219 = VERTEX_POINT ( 'NONE', #334 ) ;
#220 = DIRECTION ( 'NONE',  ( 0.000000000000000000, 0.000000000000000000, -1.000000000000000000 ) ) ;
#221 = ORIENTED_EDGE ( 'NONE', *, *, #78, .F. ) ;
#222 = CLOSED_SHELL ( 'NONE', ( #311, #154, #257, #307, #331, #94, #147, #112, #350, #272 ) ) ;
#223 = DIRECTION ( 'NONE',  ( -0.000000000000000000, -0.000000000000000000, 1.000000000000000000 ) ) ;
#224 = ORIENTED_EDGE ( 'NONE', *, *, #157, .F. ) ;
#225 = EDGE_CURVE ( 'NONE', #85, #219, #47, .T. ) ;
#226 = DIRECTION ( 'NONE',  ( 0.000000000000000000, 0.000000000000000000, 1.000000000000000000 ) ) ;
#227 = ORIENTED_EDGE ( 'NONE', *, *, #21, .F. ) ;
#228 = CARTESIAN_POINT ( 'NONE',  ( 0.000000000000000000, -200.0000000000000000, 0.000000000000000000 ) ) ;
#229 = ORIENTED_EDGE ( 'NONE', *, *, #282, .T. ) ;
#230 = VECTOR ( 'NONE', #312, 1000.000000000000000 ) ;
#231 = DIRECTION ( 'NONE',  ( 0.000000000000000000, -1.000000000000000000, 0.000000000000000000 ) ) ;
#232 = CARTESIAN_POINT ( 'NONE',  ( 124.9999999999999716, 0.000000000000000000, 125.0000000000000000 ) ) ;
#233 = CARTESIAN_POINT ( 'NONE',  ( 124.9999999999999716, -200.0000000000000000, -125.0000000000000000 ) ) ;
#234 = VECTOR ( 'NONE', #220, 1000.000000000000000 ) ;
#235 = APPROVAL ( #294, 'UNSPECIFIED' ) ;
#236 = PERSON_AND_ORGANIZATION ( #205, #42 ) ;
#237 = DIRECTION ( 'NONE',  ( 0.000000000000000000, -1.000000000000000000, 0.000000000000000000 ) ) ;
#238 = APPROVAL_DATE_TIME ( #149, #356 ) ;
#239 = VECTOR ( 'NONE', #130, 1000.000000000000000 ) ;
#240 = DATE_AND_TIME ( #209, #355 ) ;
#241 = LINE ( 'NONE', #188, #127 ) ;
#242 = CC_DESIGN_PERSON_AND_ORGANIZATION_ASSIGNMENT ( #8, #181, ( #80 ) ) ;
#243 = VECTOR ( 'NONE', #129, 1000.000000000000000 ) ;
#244 = CARTESIAN_POINT ( 'NONE',  ( -164.9999999999999716, -200.0000000000000000, 165.0000000000000568 ) ) ;
#245 = DIRECTION ( 'NONE',  ( 0.000000000000000000, 0.000000000000000000, -1.000000000000000000 ) ) ;
#246 = VERTEX_POINT ( 'NONE', #19 ) ;
#247 = CARTESIAN_POINT ( 'NONE',  ( -164.9999999999999716, -200.0000000000000000, -164.9999999999999432 ) ) ;
#248 = ORIENTED_EDGE ( 'NONE', *, *, #16, .T. ) ;
#249 = SECURITY_CLASSIFICATION ( '', '', #357 ) ;
#250 = FACE_OUTER_BOUND ( 'NONE', #116, .T. ) ;
#251 = ORIENTED_EDGE ( 'NONE', *, *, #338, .T. ) ;
#252 = MECHANICAL_CONTEXT ( 'NONE', #102, 'mechanical' ) ;
#253 = EDGE_LOOP ( 'NONE', ( #50, #122, #367, #270 ) ) ;
#254 = DIRECTION ( 'NONE',  ( 1.000000000000000000, 0.000000000000000000, 0.000000000000000000 ) ) ;
#255 = LOCAL_TIME ( 18, 18, 54.00000000000000000, #319 ) ;
#256 = CARTESIAN_POINT ( 'NONE',  ( -125.0000000000000284, -200.0000000000000000, 125.0000000000000000 ) ) ;
#257 = ADVANCED_FACE ( 'NONE', ( #250 ), #70, .T. ) ;
#258 = CARTESIAN_POINT ( 'NONE',  ( -125.0000000000000284, -200.0000000000000000, 125.0000000000000000 ) ) ;
#259 = DIRECTION ( 'NONE',  ( 0.000000000000000000, 1.000000000000000000, 0.000000000000000000 ) ) ;
#260 = CC_DESIGN_DATE_AND_TIME_ASSIGNMENT ( #212, #214, ( #80 ) ) ;
#261 = VECTOR ( 'NONE', #288, 1000.000000000000000 ) ;
#262 = LINE ( 'NONE', #146, #77 ) ;
#263 = ORIENTED_EDGE ( 'NONE', *, *, #269, .T. ) ;
#264 = CARTESIAN_POINT ( 'NONE',  ( -164.9999999999999716, -200.0000000000000000, -164.9999999999999432 ) ) ;
#265 = CALENDAR_DATE ( 2026, 23, 5 ) ;
#266 = COORDINATED_UNIVERSAL_TIME_OFFSET ( 1, 0, .AHEAD. ) ;
#267 = PLANE ( 'NONE',  #99 ) ;
#268 = APPROVAL_PERSON_ORGANIZATION ( #108, #356, #172 ) ;
#269 = EDGE_CURVE ( 'NONE', #106, #279, #218, .T. ) ;
#270 = ORIENTED_EDGE ( 'NONE', *, *, #183, .F. ) ;
#271 = PLANE ( 'NONE',  #153 ) ;
#272 = ADVANCED_FACE ( 'NONE', ( #195 ), #192, .F. ) ;
#273 = CARTESIAN_POINT ( 'NONE',  ( 124.9999999999999716, 0.000000000000000000, 125.0000000000000000 ) ) ;
#274 = LINE ( 'NONE', #244, #239 ) ;
#275 = VERTEX_POINT ( 'NONE', #217 ) ;
#276 = CARTESIAN_POINT ( 'NONE',  ( -164.9999999999999716, -200.0000000000000000, -164.9999999999999432 ) ) ;
#277 = VERTEX_POINT ( 'NONE', #155 ) ;
#278 = DIRECTION ( 'NONE',  ( 0.000000000000000000, 0.000000000000000000, -1.000000000000000000 ) ) ;
#279 = VERTEX_POINT ( 'NONE', #124 ) ;
#280 = VECTOR ( 'NONE', #347, 1000.000000000000000 ) ;
#281 = DIRECTION ( 'NONE',  ( 0.000000000000000000, -0.000000000000000000, -1.000000000000000000 ) ) ;
#282 = EDGE_CURVE ( 'NONE', #246, #28, #241, .T. ) ;
#283 = PERSON_AND_ORGANIZATION_ROLE ( 'design_owner' ) ;
#284 = ORIENTED_EDGE ( 'NONE', *, *, #38, .F. ) ;
#285 = COORDINATED_UNIVERSAL_TIME_OFFSET ( 1, 0, .AHEAD. ) ;
#286 = CC_DESIGN_APPROVAL ( #235, ( #249 ) ) ;
#287 = CARTESIAN_POINT ( 'NONE',  ( 165.0000000000000284, -200.0000000000000000, 165.0000000000000568 ) ) ;
#288 = DIRECTION ( 'NONE',  ( 1.000000000000000000, 0.000000000000000000, 0.000000000000000000 ) ) ;
#289 = CC_DESIGN_PERSON_AND_ORGANIZATION_ASSIGNMENT ( #176, #145, ( #364 ) ) ;
#290 = DIRECTION ( 'NONE',  ( -1.000000000000000000, 0.000000000000000000, 0.000000000000000000 ) ) ;
#291 = VECTOR ( 'NONE', #67, 1000.000000000000000 ) ;
#292 = ORIENTED_EDGE ( 'NONE', *, *, #183, .T. ) ;
#293 = PERSON_AND_ORGANIZATION_ROLE ( 'classification_officer' ) ;
#294 = APPROVAL_STATUS ( 'not_yet_approved' ) ;
#295 = ORIENTED_EDGE ( 'NONE', *, *, #11, .T. ) ;
#296 = CARTESIAN_POINT ( 'NONE',  ( -125.0000000000000284, -200.0000000000000000, -125.0000000000000000 ) ) ;
#297 = DIRECTION ( 'NONE',  ( 0.000000000000000000, 1.000000000000000000, 0.000000000000000000 ) ) ;
#298 = EDGE_CURVE ( 'NONE', #190, #45, #29, .T. ) ;
#299 = DIRECTION ( 'NONE',  ( 1.000000000000000000, 0.000000000000000000, -0.000000000000000000 ) ) ;
#300 = PRODUCT_RELATED_PRODUCT_CATEGORY ( 'detail', '', ( #315 ) ) ;
#301 = CC_DESIGN_APPROVAL ( #372, ( #364 ) ) ;
#302 = CARTESIAN_POINT ( 'NONE',  ( 124.9999999999999716, -200.0000000000000000, 125.0000000000000000 ) ) ;
#303 = ORIENTED_EDGE ( 'NONE', *, *, #150, .F. ) ;
#304 = MANIFOLD_SOLID_BREP ( 'Boss.-Extru.1', #222 ) ;
#305 = PLANE ( 'NONE',  #12 ) ;
#306 = VERTEX_POINT ( 'NONE', #256 ) ;
#307 = ADVANCED_FACE ( 'NONE', ( #203 ), #167, .T. ) ;
#308 = CARTESIAN_POINT ( 'NONE',  ( 0.000000000000000000, 0.000000000000000000, 0.000000000000000000 ) ) ;
#309 = ORIENTED_EDGE ( 'NONE', *, *, #7, .T. ) ;
#310 = AXIS2_PLACEMENT_3D ( 'NONE', #308, #82, #349 ) ;
#311 = ADVANCED_FACE ( 'NONE', ( #198 ), #140, .T. ) ;
#312 = DIRECTION ( 'NONE',  ( 0.000000000000000000, 1.000000000000000000, 0.000000000000000000 ) ) ;
#313 = ORIENTED_EDGE ( 'NONE', *, *, #173, .F. ) ;
#314 = APPROVAL_STATUS ( 'not_yet_approved' ) ;
#315 = PRODUCT ( 'plateformeFixe_D\X2\00e9\X0\faut_sldprt', 'plateformeFixe_D\X2\00e9\X0\faut_sldprt', '', ( #252 ) ) ;
#316 = PLANE ( 'NONE',  #371 ) ;
#317 = CC_DESIGN_APPROVAL ( #356, ( #80 ) ) ;
#318 = PLANE ( 'NONE',  #328 ) ;
#319 = COORDINATED_UNIVERSAL_TIME_OFFSET ( 1, 0, .AHEAD. ) ;
#320 = DIRECTION ( 'NONE',  ( 1.000000000000000000, 0.000000000000000000, 0.000000000000000000 ) ) ;
#321 = APPROVAL_ROLE ( '' ) ;
#322 = LOCAL_TIME ( 18, 18, 54.00000000000000000, #326 ) ;
#323 = LINE ( 'NONE', #296, #175 ) ;
#324 = APPROVAL_STATUS ( 'not_yet_approved' ) ;
#325 = LINE ( 'NONE', #87, #359 ) ;
#326 = COORDINATED_UNIVERSAL_TIME_OFFSET ( 1, 0, .AHEAD. ) ;
#327 = DIRECTION ( 'NONE',  ( 0.000000000000000000, 0.000000000000000000, -1.000000000000000000 ) ) ;
#328 = AXIS2_PLACEMENT_3D ( 'NONE', #136, #290, #27 ) ;
#329 = CARTESIAN_POINT ( 'NONE',  ( -164.9999999999999716, -200.0000000000000000, 165.0000000000000568 ) ) ;
#330 = DIRECTION ( 'NONE',  ( -1.000000000000000000, -0.000000000000000000, -0.000000000000000000 ) ) ;
#331 = ADVANCED_FACE ( 'NONE', ( #111, #200 ), #316, .T. ) ;
#332 = LINE ( 'NONE', #276, #348 ) ;
#333 = ORIENTED_EDGE ( 'NONE', *, *, #78, .T. ) ;
#334 = CARTESIAN_POINT ( 'NONE',  ( -164.9999999999999716, 0.000000000000000000, -164.9999999999999432 ) ) ;
#335 = VERTEX_POINT ( 'NONE', #138 ) ;
#336 = CARTESIAN_POINT ( 'NONE',  ( -125.0000000000000284, -200.0000000000000000, -125.0000000000000000 ) ) ;
#337 = ORIENTED_EDGE ( 'NONE', *, *, #201, .T. ) ;
#338 = EDGE_CURVE ( 'NONE', #344, #277, #79, .T. ) ;
#339 = APPLICATION_CONTEXT ( 'configuration controlled 3d designs of mechanical parts and assemblies' ) ;
#340 = DIRECTION ( 'NONE',  ( 0.000000000000000000, 0.000000000000000000, 1.000000000000000000 ) ) ;
#341 = EDGE_LOOP ( 'NONE', ( #14, #104, #199, #263 ) ) ;
#342 = CC_DESIGN_PERSON_AND_ORGANIZATION_ASSIGNMENT ( #118, #293, ( #249 ) ) ;
#343 =( LENGTH_UNIT ( ) NAMED_UNIT ( * ) SI_UNIT ( .MILLI., .METRE. ) );
#344 = VERTEX_POINT ( 'NONE', #233 ) ;
#345 = VECTOR ( 'NONE', #49, 1000.000000000000000 ) ;
#346 = EDGE_CURVE ( 'NONE', #306, #335, #373, .T. ) ;
#347 = DIRECTION ( 'NONE',  ( 0.000000000000000000, 1.000000000000000000, 0.000000000000000000 ) ) ;
#348 = VECTOR ( 'NONE', #103, 1000.000000000000000 ) ;
#349 = DIRECTION ( 'NONE',  ( 1.000000000000000000, 0.000000000000000000, 0.000000000000000000 ) ) ;
#350 = ADVANCED_FACE ( 'NONE', ( #105 ), #318, .F. ) ;
#351 = SHAPE_DEFINITION_REPRESENTATION ( #110, #165 ) ;
#352 = CARTESIAN_POINT ( 'NONE',  ( -125.0000000000000284, -200.0000000000000000, 125.0000000000000000 ) ) ;
#353 = ORIENTED_EDGE ( 'NONE', *, *, #194, .F. ) ;
#354 = DATE_AND_TIME ( #120, #322 ) ;
#355 = LOCAL_TIME ( 18, 18, 54.00000000000000000, #266 ) ;
#356 = APPROVAL ( #314, 'UNSPECIFIED' ) ;
#357 = SECURITY_CLASSIFICATION_LEVEL ( 'unclassified' ) ;
#358 = CARTESIAN_POINT ( 'NONE',  ( -164.9999999999999716, 0.000000000000000000, -164.9999999999999432 ) ) ;
#359 = VECTOR ( 'NONE', #327, 1000.000000000000000 ) ;
#360 = LINE ( 'NONE', #128, #234 ) ;
#361 = DIRECTION ( 'NONE',  ( 1.000000000000000000, -0.000000000000000000, 0.000000000000000000 ) ) ;
#362 = DIRECTION ( 'NONE',  ( -1.000000000000000000, 0.000000000000000000, 0.000000000000000000 ) ) ;
#363 = ORIENTED_EDGE ( 'NONE', *, *, #298, .F. ) ;
#364 = PRODUCT_DEFINITION_FORMATION_WITH_SPECIFIED_SOURCE ( 'ANY', '', #315, .NOT_KNOWN. ) ;
#365 = CARTESIAN_POINT ( 'NONE',  ( -164.9999999999999716, -200.0000000000000000, 165.0000000000000568 ) ) ;
#366 = ORIENTED_EDGE ( 'NONE', *, *, #157, .T. ) ;
#367 = ORIENTED_EDGE ( 'NONE', *, *, #201, .F. ) ;
#368 = LINE ( 'NONE', #107, #216 ) ;
#369 = UNCERTAINTY_MEASURE_WITH_UNIT (LENGTH_MEASURE( 1.000000000000000082E-05 ), #343, 'distance_accuracy_value', 'NONE');
#370 = APPLICATION_PROTOCOL_DEFINITION ( 'international standard', 'config_control_design', 1994, #339 ) ;
#371 = AXIS2_PLACEMENT_3D ( 'NONE', #228, #231, #281 ) ;
#372 = APPROVAL ( #324, 'UNSPECIFIED' ) ;
#373 = LINE ( 'NONE', #258, #230 ) ;
ENDSEC;
END-ISO-10303-21;
